<svg id="Layer_1" data-name="Layer 1" xmlns="http://www.w3.org/2000/svg" viewBox="0 0 120.34 123.71"><defs><style>.cls-1{fill:#0c423f;}.cls-2{fill:#f15b40;}</style></defs><path class="cls-1" d="M33.5,58.08,30.87,51l-2.6,7.11Zm7.11,7.58h-4.2l-1.64-4.34H27.09L25.5,65.66H21.39l7.48-19.15H33Z"/><path class="cls-1" d="M42.56,61.68l3.68-.56a2.67,2.67,0,0,0,3,2.18c1.75,0,2.63-.5,2.63-1.49,0-.56-.51-1-1.51-1.17-3.39-.75-5.45-1.48-6.17-2.21a3.67,3.67,0,0,1-1.09-2.68q0-4.26,5.84-4.26,5.09,0,6.13,3.67l-3.47.64c-.29-1.11-1.16-1.66-2.6-1.66-1.66,0-2.5.37-2.5,1.13s1.31,1.22,3.92,1.79a9.69,9.69,0,0,1,4,1.56,3.3,3.3,0,0,1,1.13,2.69,3.88,3.88,0,0,1-1.85,3.48A8.19,8.19,0,0,1,49.22,66c-3.71,0-5.93-1.42-6.66-4.28"/><path class="cls-1" d="M63.5,58.5c0,3,1.07,4.54,3.19,4.54q3,0,3-4.36t-3-4.28c-2.07,0-3.11,1.36-3.11,4.1m-3.62-6.71H63.3v2.07a4.83,4.83,0,0,1,4.33-2.37,5,5,0,0,1,4.27,2.1,8.39,8.39,0,0,1,1.51,5,8.51,8.51,0,0,1-1.56,5.24A5,5,0,0,1,67.61,66a5.51,5.51,0,0,1-4.07-2v7H59.88Z"/><rect class="cls-1" x="77.46" y="46.51" width="3.88" height="19.15"/><polygon class="cls-1" points="90.56 65.66 90.56 49.75 84.87 49.75 84.87 46.51 100.09 46.51 100.09 49.75 94.42 49.75 94.42 65.66 90.56 65.66"/><path class="cls-1" d="M60.3,99.89c25.4-.69,48.31-21.34,48.31-47,0-21.75-15.33-38.68-35.72-45A1.49,1.49,0,0,1,71.69,6c.3-1.34,1.79-1.1,1.79-1.1a60.17,60.17,0,1,1-26.63,0s1.5-.24,1.79,1.1a1.49,1.49,0,0,1-1.2,1.86c-20.38,6.36-35.71,23.29-35.71,45,0,25.7,22.91,46.35,48.31,47Z"/><path class="cls-2" d="M65.44,5.25A5.25,5.25,0,1,1,60.19,0a5.25,5.25,0,0,1,5.25,5.25"/><path class="cls-1" d="M100.53,59.87a2.73,2.73,0,1,1-2,.8,2.75,2.75,0,0,1,2-.8m0-.3a3.05,3.05,0,1,0,3,3,3,3,0,0,0-3-3Z"/><path class="cls-1" d="M100.78,63l.9,1.26h-.38L100.42,63h-.54v1.26h-.31V61h1.2a.89.89,0,0,1,.93,1A.9.9,0,0,1,100.78,63Zm-.9-.29h.81a.63.63,0,0,0,.7-.7.61.61,0,0,0-.62-.69h-.89Z"/></svg>